<?xml version="1.0" encoding="UTF-8" standalone="no"?>
<!-- Created with Inkscape (http://www.inkscape.org/) -->

<svg
   xmlns:dc="http://purl.org/dc/elements/1.1/"
   xmlns:cc="http://creativecommons.org/ns#"
   xmlns:rdf="http://www.w3.org/1999/02/22-rdf-syntax-ns#"
   xmlns:svg="http://www.w3.org/2000/svg"
   xmlns="http://www.w3.org/2000/svg"
   xmlns:sodipodi="http://sodipodi.sourceforge.net/DTD/sodipodi-0.dtd"
   xmlns:inkscape="http://www.inkscape.org/namespaces/inkscape"
   width="52.12973mm"
   height="52.12973mm"
   viewBox="0 0 52.12973 52.12973"
   version="1.1"
   id="svg8"
   inkscape:version="0.92.2 2405546, 2018-03-11"
   sodipodi:docname="icon.svg"
   inkscape:export-filename="/home/jens/git/pywisp/pywisp/resources/icons/icon.png"
   inkscape:export-xdpi="600"
   inkscape:export-ydpi="600">
  <defs
     id="defs2" />
  <sodipodi:namedview
     id="base"
     pagecolor="#ffffff"
     bordercolor="#666666"
     borderopacity="1.0"
     inkscape:pageopacity="0.0"
     inkscape:pageshadow="2"
     inkscape:zoom="4"
     inkscape:cx="-41.752895"
     inkscape:cy="113.1682"
     inkscape:document-units="mm"
     inkscape:current-layer="layer1"
     showgrid="false"
     inkscape:window-width="1920"
     inkscape:window-height="999"
     inkscape:window-x="1600"
     inkscape:window-y="32"
     inkscape:window-maximized="1"
     inkscape:measure-start="257.336,839.626"
     inkscape:measure-end="0,0"
     showguides="true"
     fit-margin-top="0"
     fit-margin-left="0"
     fit-margin-right="0"
     fit-margin-bottom="0"
     inkscape:pagecheckerboard="true" />
  <metadata
     id="metadata5">
    <rdf:RDF>
      <cc:Work
         rdf:about="">
        <dc:format>image/svg+xml</dc:format>
        <dc:type
           rdf:resource="http://purl.org/dc/dcmitype/StillImage" />
        <dc:title></dc:title>
      </cc:Work>
    </rdf:RDF>
  </metadata>
  <g
     inkscape:label="Ebene 1"
     inkscape:groupmode="layer"
     id="layer1"
     transform="translate(-33.980825,-15.734496)">
    <g
       id="g863"
       style="stroke-width:0.177;stroke-miterlimit:10;stroke-dasharray:none"
       inkscape:export-xdpi="300"
       inkscape:export-ydpi="300">
      <path
         style="opacity:1;fill:#389c47;fill-opacity:1;stroke:#000000;stroke-width:2.64566932;stroke-miterlimit:4;stroke-dasharray:none;stroke-opacity:1"
         d="m 31.658697,101.46568 c 0,-0.98839 -0.728004,-0.64526 7.375,-3.476076 l 5.25,-1.83411 0.06376,-23.756188 0.06376,-23.756185 -6.376256,-2.219665 -6.376257,-2.219665 v -0.816896 -0.816896 h 15.5 15.5 v 0.821687 0.821687 l -6.376255,2.224733 -6.376254,2.224732 0.06376,23.737276 0.06375,23.737275 6.25,2.18601 6.25,2.186011 0.07759,0.90529 0.07759,0.9053 H 47.173789 31.658697 Z"
         id="path839"
         inkscape:connector-curvature="0"
         transform="matrix(0.26458333,0,0,0.26458333,33.980825,15.734496)"
         sodipodi:nodetypes="ccccccccccccccc" />
      <path
         style="opacity:1;fill:#389c47;fill-opacity:1;stroke:#000001;stroke-width:2.64566932;stroke-miterlimit:4;stroke-dasharray:none;stroke-opacity:1"
         d="m 79.453662,75.183636 0.08004,-0.968367 4.618227,-1.947635 4.618227,-1.947635 h 9.819273 9.062851 v -24.25 h -13.618578 -14.375 V 27.860812 9.6516243 L 91.699778,9.4858116 C 98.322373,9.3946146 105.80362,9.3199989 108.32478,9.3199989 h 4.58392 l -0.002,0.9375001 -0.002,0.9375 -4.68506,1.939827 -4.68494,1.939827 -10.187503,-0.0023 -8.296487,-0.0023 v 12.875 12.875 H 98.034697 112.9097 v 17.5 17.5 l -5.6875,2.5e-4 c -3.12813,1.7e-4 -10.673519,0.07487 -16.767538,0.166002 l -11.080036,0.165693 0.08004,-0.968365 z"
         id="path841"
         inkscape:connector-curvature="0"
         transform="matrix(0.26458333,0,0,0.26458333,33.980825,15.734496)"
         sodipodi:nodetypes="cccccccccccssccccccccccccccsccc" />
      <path
         style="opacity:1;fill:#389c47;fill-opacity:1;stroke:#000000;stroke-width:2.64566932;stroke-miterlimit:4;stroke-dasharray:none;stroke-opacity:1"
         d="m 121.4087,100.50796 12.875,-4.564226 -5.4e-4,-54.623735 31.62554,0.330972 v 30.642973 l -26.2549,-0.304308 0.13,23.954815 12.875,4.563509 v 1.81039 h -31.25 z m 39.5,-52.437961 h -21 v 17.5 h 21 z"
         id="path843"
         inkscape:connector-curvature="0"
         transform="matrix(0.26458333,0,0,0.26458333,33.980825,15.734496)"
         inkscape:export-xdpi="400"
         inkscape:export-ydpi="400"
         sodipodi:nodetypes="cccccccccccccccc" />
    </g>
    <g
       id="g877"
       style="stroke-width:0.177;stroke-miterlimit:10;stroke-dasharray:none"
       inkscape:export-xdpi="300"
       inkscape:export-ydpi="300" />
    <g
       id="g871"
       style="stroke-width:0.177;stroke-miterlimit:10;stroke-dasharray:none"
       inkscape:export-xdpi="300"
       inkscape:export-ydpi="300" />
    <path
       style="opacity:1;fill:#0088aa;fill-opacity:1;stroke:#000000;stroke-width:2.64566932;stroke-linecap:square;stroke-linejoin:round;stroke-miterlimit:10;stroke-dasharray:none;stroke-opacity:1;paint-order:markers fill stroke"
       d="m 176.4917,251.36574 c -0.14584,-0.18224 -1.02362,-1.19724 -1.95063,-2.25555 -11.66929,-13.32215 -21.37754,-31.18808 -28.46163,-52.37747 -4.32804,-12.94569 -7.65987,-26.77903 -9.96315,-41.36574 -1.82104,-11.53267 -3.15831,-24.32772 -3.4642,-33.14564 -0.25593,-7.37794 -0.41725,-32.835984 -0.22369,-35.301349 l 0.16231,-2.067333 1.0015,-1.114647 c 0.55082,-0.613056 4.15048,-4.296627 7.99923,-8.185714 l 6.99774,-7.071068 -0.0998,0.844706 c -2.99573,25.357813 -3.92505,45.063535 -3.09479,65.623335 1.33862,33.14874 8.42351,58.82582 20.55871,74.50899 3.45054,4.45938 11.59129,11.49287 13.30216,11.49287 0.83936,0 1.41309,-0.51981 4.18493,-3.79164 10.31399,-12.17445 43.22363,-49.94848 43.51632,-49.94848 0.2938,0 15.04719,16.83492 31.29373,35.7089 9.12676,10.60277 14.01117,16.20738 14.8998,17.09676 0.50179,0.50221 0.70044,0.58091 1.46639,0.58091 0.76886,0 1.05651,-0.11508 2.17605,-0.87054 3.46481,-2.33802 7.79182,-6.29047 10.26906,-9.3801 4.6427,-5.79043 8.1727,-12.04884 11.31839,-20.06657 5.5252,-14.08265 9.20577,-33.85395 9.9712,-53.56334 0.85349,-21.97656 -0.18156,-45.734071 -2.88794,-66.28786 -0.14058,-1.06763 -0.23088,-1.965865 -0.20066,-1.996077 0.13578,-0.135786 15.93872,16.115915 16.08421,16.540967 0.24628,0.719494 0.2087,29.19736 -0.0469,35.56791 -0.47724,11.89321 -2.03551,26.00117 -4.28381,38.78427 -6.5282,37.1171 -18.54751,66.47586 -35.79507,87.43429 -2.09082,2.54067 -4.24642,4.90203 -4.35705,4.77297 -0.0417,-0.0486 -0.78417,-1.00321 -1.65,-2.12132 -6.61697,-8.54495 -39.92176,-49.61341 -44.77597,-55.2137 -1.90482,-2.19759 -2.47481,-2.64049 -3.39817,-2.64049 -1.41782,0 -2.09949,0.73564 -12.82166,13.83679 -11.75574,14.36405 -27.68815,34.09607 -33.58161,41.59025 -2.03667,2.58985 -3.7428,4.70955 -3.79141,4.71043 -0.0486,0.002 -0.20772,-0.14748 -0.35356,-0.32972 z"
       id="path865"
       inkscape:connector-curvature="0"
       transform="scale(0.26458333)"
       inkscape:export-xdpi="300"
       inkscape:export-ydpi="300" />
  </g>
</svg>
